<?xml version="1.0" encoding="UTF-8"?>
<svg id="Layer_2" data-name="Layer 2" xmlns="http://www.w3.org/2000/svg" viewBox="0 0 162.48 48.51">
  <defs>
    <style>
      .cls-1 {
        fill: #fff;
      }
    </style>
  </defs>
  <g id="Layer_2-2" data-name="Layer 2">
    <g id="Layer_1-2" data-name="Layer 1-2">
      <g>
        <path class="cls-1" d="M53.7,9.9c.13.08.11,2.06.09,2.37-.08,1.1-.27,2.17-.94,3.04-1.38,1.79-3.17,3.17-4.6,4.83-.11.13-.57.7-.6.8-.2.66.03,2.21.16,2.92.08.46.36,1.04.37,1.51,0,.12-.12.77-.32.53-.24-.46-.5-.91-.71-1.38-.26-.59-.46-1.45-.75-1.98-.05-.09-.15-.28-.28-.25l-.87.69c-4.6,3.68-12.77,10.74-9.45,17.41,1.87,3.75,6.96,4.98,10.77,5.45,1.87.23,6.62.6,8.33.21.33-.07,3.18-.28,3.36-.31,7.07-.92,22.12-7.67,28.48-10.71.52.15-.37.79-.61.96-8.04,5.75-28.29,12.96-38.16,12.5-6.36-.29-14.25-3.27-15.07-10.5-.68-5.95,2.59-10.5,6.73-14.3.32-.29,2.31-1.84,2.3-2.07l-1.31-.33c-5.31-1.39-4.24-8.91.3-10.66,2.4-.93,4.34-.42,5.45,1.96.47,1.02.61,2.19.71,3.31.06,0,.12,0,.18-.01.21-.05,1.39-.95,1.63-1.16.35-.29.85-.76,1.19-1.09,1.16-1.11,2.12-2.41,3.11-3.67.1-.08.41-.12.5-.06M41.92,14.27c-.64.1-1.71.69-1.97,1.31-.19.46-.15.56.25.85,1.24.9,3.93.56,5.37.25.07-1.97-1.96-2.67-3.65-2.4"/>
        <path class="cls-1" d="M37.78,0c.28-.05,1.72.42,2.06.57.29.12,1.15.51,1.23.79.15.52-.2,1.85-.38,2.39-.09.28-.49,1.29-.75,1.36l-3.21-1.37c-.08-.25.23-1.64.32-1.99.09-.34.3-1.16.43-1.44.04-.09.21-.3.3-.31"/>
        <polygon class="cls-1" points="50.78 33.43 50.78 32.72 52.06 32.72 52.06 24.13 50.78 24.13 50.78 23.41 54.7 23.41 54.7 24.13 53.42 24.13 53.42 27.59 58.61 27.59 58.61 24.13 57.34 24.13 57.34 23.41 61.25 23.41 61.25 24.13 59.97 24.13 59.97 32.72 61.25 32.72 61.25 33.43 57.34 33.43 57.34 32.72 58.61 32.72 58.61 28.41 53.42 28.41 53.42 32.72 54.7 32.72 54.7 33.43 50.78 33.43"/>
        <path class="cls-1" d="M61.93,33.43v-.71h.88l3.57-9.3h1.13l3.58,9.3h.99v.71h-3.64v-.71h1.11l-.84-2.2h-4.21l-.84,2.2h1.1v.71h-2.83ZM64.76,29.8h3.68l-1.84-4.76s-1.84,4.76-1.84,4.76Z"/>
        <polygon class="cls-1" points="75.32 32.72 76.6 32.72 76.6 33.43 72.68 33.43 72.68 32.72 73.96 32.72 73.96 24.13 72.68 24.13 72.68 23.41 76.6 23.41 76.6 24.13 75.32 24.13 75.32 32.72"/>
        <polygon class="cls-1" points="78.02 33.43 78.02 32.72 79.37 32.72 79.37 24.13 78.02 24.13 78.02 23.41 80.59 23.41 86.6 31.31 86.6 24.13 85.25 24.13 85.25 23.41 88.77 23.41 88.77 24.13 87.42 24.13 87.42 33.62 86.61 33.62 80.2 25.18 80.2 32.72 81.55 32.72 81.55 33.43 78.02 33.43"/>
        <polygon class="cls-1" points="94.5 33.43 94.5 32.72 95.77 32.72 95.77 24.13 94.5 24.13 94.5 23.41 98.41 23.41 98.41 24.13 97.14 24.13 97.14 32.6 101.71 32.6 101.71 30.93 102.53 30.93 102.53 33.43 94.5 33.43"/>
        <polygon class="cls-1" points="106.26 32.72 107.53 32.72 107.53 33.43 103.62 33.43 103.62 32.72 104.9 32.72 104.9 24.13 103.62 24.13 103.62 23.41 107.53 23.41 107.53 24.13 106.26 24.13 106.26 32.72"/>
        <polygon class="cls-1" points="108.96 33.43 108.96 32.72 110.31 32.72 110.31 24.13 108.96 24.13 108.96 23.41 111.53 23.41 117.53 31.31 117.53 24.13 116.19 24.13 116.19 23.41 119.71 23.41 119.71 24.13 118.36 24.13 118.36 33.62 117.55 33.62 111.13 25.18 111.13 32.72 112.48 32.72 112.48 33.43 108.96 33.43"/>
        <polygon class="cls-1" points="121.07 33.43 121.07 32.72 122.34 32.72 122.34 24.13 121.07 24.13 121.07 23.41 129.13 23.41 129.13 25.64 128.3 25.64 128.3 24.24 123.7 24.24 123.7 27.59 126.98 27.59 126.98 26.34 127.81 26.34 127.81 29.66 126.98 29.66 126.98 28.41 123.7 28.41 123.7 32.6 128.41 32.6 128.41 31.2 129.24 31.2 129.24 33.43 121.07 33.43"/>
        <rect class="cls-1" y="27.6" width="30.45" height="1.32"/>
        <rect class="cls-1" x="132.03" y="27.6" width="30.45" height="1.32"/>
      </g>
    </g>
  </g>
</svg>